<?xml version="1.0" encoding="UTF-8"?>
<svg width="897px" height="897px" viewBox="0 0 897 897" version="1.1" xmlns="http://www.w3.org/2000/svg" xmlns:xlink="http://www.w3.org/1999/xlink">
    <!-- Generator: Sketch 55.2 (78181) - https://sketchapp.com -->
    <title>Group 2</title>
    <desc>Created with Sketch.</desc>
    <g id="Page-1" stroke="none" stroke-width="1" fill="none" fill-rule="evenodd">
        <g id="and-logo" transform="translate(-107.000000, -107.000000)" fill="#000000" fill-rule="nonzero">
            <g id="Group-2" transform="translate(107.000000, 107.000000)">
                <g id="Group">
                    <path d="M448.5,0 C200.80029,0 0,200.80029 0,448.5 C0,696.19971 200.80029,897 448.5,897 C696.19971,897 897,696.19971 897,448.5 C897,200.80029 696.19971,0 448.5,0 Z M448.5,67 C659.196632,67 830,237.803368 830,448.5 C830,659.196632 659.196632,830 448.5,830 C237.803368,830 67,659.196632 67,448.5 C67,237.803368 237.803368,67 448.5,67 Z" id="Oval"></path>
                </g>
                <path d="M313.778429,558.674091 L302.196952,515.165299 L238.029308,515.165299 L225.821805,558.674091 L182,558.674091 L246.793669,338 L294.058617,338 L357.913247,558.674091 L313.778429,558.674091 Z M247.106682,477.916764 L293.119578,477.916764 L270.582649,391.525205 L247.106682,477.916764 Z M528.192263,558.674091 L487.500586,558.674091 L422.393904,430.96483 L422.393904,558.674091 L379.198124,558.674091 L379.198124,338 L419.889801,338 L484.68347,466.335287 L484.68347,338.626026 L528.192263,338.626026 L528.192263,558.674091 Z M569.196952,558.674091 L569.196952,338 L641.815944,338 C685.637749,338 716,364.919109 716,418.757327 L716,476.977726 C716,530.189918 685.637749,558.674091 641.815944,558.674091 L569.196952,558.674091 Z M612.392732,379.317702 L612.392732,517.669402 L636.807737,517.669402 C657.466589,517.669402 673.117233,509.531067 673.117233,466.335287 L673.117233,423.452521 C673.117233,399.66354 666.856975,379.317702 636.807737,379.317702 L612.392732,379.317702 Z" id="AND"></path>
            </g>
        </g>
    </g>
</svg>